# ProBuilder 6.0.8
# https://unity3d.com/unity/features/worldbuilding/probuilder
# 24-2-2026 00:11:17

mtllib ./FlooTest.mtl
o FlooTest

g Cube
v -1 -0.5 11
v -50.5 -0.5 11
v -1 0.5 11
v -50.5 0.5 11
v -50.5 -0.5 -18.75
v -50.5 0.5 -18.75
v -1 -0.5 -18.75
v -1 0.5 -18.75
v 19.5 -0.5 -17.5
v 19.5 -0.5 11
v 19.5 0.5 -17.5
v 19.5 0.5 11
v -1 -0.5 31
v -1 0.5 31
v 19.5 -0.5 31
v 19.5 0.5 31

vt 49.5 0
vt 0 0
vt 49.5 1
vt 0 1
vt 29.75 0
vt 29.75 1
vt 28.5 0
vt 28.5 1
vt 0 -28.75
vt 49.5 -28.75
vt 20.5 -27.5
vt 20.5 1
vt 20.53807 1
vt 20.53807 0
vt 20.5 0
vt 20.5 -28.75
vt 0 -27.5
vt 20 0
vt 20 1
vt 20.5 -19
vt 0 -19

vn 0 0 1
vn -1 0 0
vn 0 0 -1
vn 1 0 0
vn 0 1 0
vn 0 -1 0
vn 0.06086257 0 -0.9981462

usemtl Ground_02
f 3/3/1 4/4/1 2/2/1 1/1/1
f 4/6/2 6/4/2 5/2/2 2/5/2
f 6/3/3 8/4/3 7/2/3 5/1/3
f 11/8/4 12/4/4 10/2/4 9/7/4
f 8/9/5 6/10/5 4/3/5 3/4/5
f 1/3/6 2/4/6 5/9/6 7/10/6
f 9/11/6 10/12/6 1/4/6 7/9/6
f 11/4/7 9/2/7 7/14/7 8/13/7
f 15/15/1 16/12/1 14/4/1 13/2/1
f 12/4/5 11/17/5 8/16/5 3/12/5
f 13/18/2 14/19/2 3/4/2 1/2/2
f 15/12/6 13/4/6 1/21/6 10/20/6
f 14/12/5 16/4/5 12/21/5 3/20/5
f 16/4/4 15/2/4 10/18/4 12/19/4

